<!--
  - ////////////////////////////////////////
  - //      ShellUtils © 2022 Ewsgit      //
  - //   Licensed under the MIT License   //
  - ////////////////////////////////////////
  -->

<svg width="390" height="148" viewBox="0 0 390 148" fill="none" xmlns="http://www.w3.org/2000/svg">
<path d="M162.828 80H154.627L154.678 73.1445H162.828C164.521 73.1445 165.951 72.7383 167.119 71.9258C168.304 71.1133 169.201 69.903 169.811 68.2949C170.437 66.6699 170.75 64.6725 170.75 62.3027V60.7031C170.75 58.9258 170.572 57.3685 170.217 56.0312C169.878 54.6771 169.37 53.5514 168.693 52.6543C168.016 51.7402 167.17 51.0547 166.154 50.5977C165.156 50.1406 164.005 49.9121 162.701 49.9121H154.475V43.0312H162.701C165.206 43.0312 167.5 43.4629 169.582 44.3262C171.681 45.1725 173.492 46.3913 175.016 47.9824C176.556 49.5566 177.741 51.4271 178.57 53.5938C179.417 55.7435 179.84 58.1302 179.84 60.7539V62.3027C179.84 64.9095 179.417 67.2962 178.57 69.4629C177.741 71.6296 176.564 73.5 175.041 75.0742C173.518 76.6484 171.715 77.8672 169.633 78.7305C167.568 79.5768 165.299 80 162.828 80ZM159.73 43.0312V80H150.818V43.0312H159.73ZM197.385 80.5078C195.15 80.5078 193.153 80.1608 191.393 79.4668C189.632 78.7559 188.143 77.7826 186.924 76.5469C185.722 75.3112 184.799 73.8893 184.156 72.2812C183.53 70.6732 183.217 68.972 183.217 67.1777V66.2129C183.217 64.1986 183.496 62.3366 184.055 60.627C184.613 58.9004 185.443 57.3939 186.543 56.1074C187.643 54.821 189.023 53.8223 190.682 53.1113C192.34 52.3835 194.27 52.0195 196.471 52.0195C198.417 52.0195 200.161 52.3327 201.701 52.959C203.242 53.5853 204.545 54.4824 205.611 55.6504C206.695 56.8184 207.516 58.2318 208.074 59.8906C208.65 61.5495 208.938 63.4115 208.938 65.4766V68.9551H186.492V63.5977H200.584V62.9375C200.601 62.0234 200.44 61.2448 200.102 60.6016C199.78 59.9583 199.306 59.4674 198.68 59.1289C198.053 58.7904 197.292 58.6211 196.395 58.6211C195.464 58.6211 194.693 58.8242 194.084 59.2305C193.492 59.6367 193.026 60.1953 192.688 60.9062C192.366 61.6003 192.137 62.4043 192.002 63.3184C191.867 64.2324 191.799 65.1973 191.799 66.2129V67.1777C191.799 68.1934 191.934 69.1159 192.205 69.9453C192.493 70.7747 192.899 71.4857 193.424 72.0781C193.965 72.6536 194.609 73.1022 195.354 73.4238C196.115 73.7454 196.979 73.9062 197.943 73.9062C199.111 73.9062 200.262 73.6862 201.396 73.2461C202.531 72.806 203.504 72.0781 204.316 71.0625L208.201 75.6836C207.643 76.4792 206.847 77.2493 205.814 77.9941C204.799 78.7389 203.58 79.3483 202.158 79.8223C200.736 80.2793 199.145 80.5078 197.385 80.5078ZM221.963 74.1348L227.371 52.5273H236.385L227.396 80H222.064L221.963 74.1348ZM218.764 52.5273L224.096 74.1348L224.045 80H218.688L209.725 52.5273H218.764ZM251.34 80H243.139L243.189 73.1445H251.34C253.033 73.1445 254.463 72.7383 255.631 71.9258C256.816 71.1133 257.713 69.903 258.322 68.2949C258.949 66.6699 259.262 64.6725 259.262 62.3027V60.7031C259.262 58.9258 259.084 57.3685 258.729 56.0312C258.39 54.6771 257.882 53.5514 257.205 52.6543C256.528 51.7402 255.682 51.0547 254.666 50.5977C253.667 50.1406 252.516 49.9121 251.213 49.9121H242.986V43.0312H251.213C253.718 43.0312 256.012 43.4629 258.094 44.3262C260.193 45.1725 262.004 46.3913 263.527 47.9824C265.068 49.5566 266.253 51.4271 267.082 53.5938C267.928 55.7435 268.352 58.1302 268.352 60.7539V62.3027C268.352 64.9095 267.928 67.2962 267.082 69.4629C266.253 71.6296 265.076 73.5 263.553 75.0742C262.029 76.6484 260.227 77.8672 258.145 78.7305C256.079 79.5768 253.811 80 251.34 80ZM248.242 43.0312V80H239.33V43.0312H248.242ZM286.861 73.0938V61.7695C286.861 60.9909 286.751 60.3223 286.531 59.7637C286.311 59.2051 285.964 58.7734 285.49 58.4688C285.016 58.1471 284.382 57.9863 283.586 57.9863C282.943 57.9863 282.393 58.0964 281.936 58.3164C281.479 58.5365 281.132 58.8665 280.895 59.3066C280.658 59.7467 280.539 60.3053 280.539 60.9824H271.982C271.982 59.7129 272.262 58.5365 272.82 57.4531C273.396 56.3529 274.208 55.3965 275.258 54.584C276.324 53.7715 277.594 53.1452 279.066 52.7051C280.556 52.248 282.215 52.0195 284.043 52.0195C286.227 52.0195 288.173 52.3835 289.883 53.1113C291.609 53.8392 292.972 54.931 293.971 56.3867C294.969 57.8255 295.469 59.6367 295.469 61.8203V73.0684C295.469 74.8626 295.57 76.2253 295.773 77.1562C295.977 78.0703 296.264 78.8743 296.637 79.5684V80H288.055C287.648 79.1536 287.344 78.1211 287.141 76.9023C286.954 75.6667 286.861 74.3971 286.861 73.0938ZM287.902 63.2168L287.953 67.7871H284.17C283.374 67.7871 282.697 67.8971 282.139 68.1172C281.597 68.3372 281.157 68.6419 280.818 69.0312C280.497 69.4036 280.26 69.8268 280.107 70.3008C279.972 70.7747 279.904 71.2741 279.904 71.7988C279.904 72.3066 280.023 72.7637 280.26 73.1699C280.514 73.5592 280.852 73.8639 281.275 74.084C281.699 74.304 282.173 74.4141 282.697 74.4141C283.645 74.4141 284.449 74.2363 285.109 73.8809C285.786 73.5085 286.303 73.0599 286.658 72.5352C287.014 72.0104 287.191 71.5195 287.191 71.0625L289.07 74.5664C288.732 75.2435 288.342 75.929 287.902 76.623C287.479 77.3171 286.946 77.9603 286.303 78.5527C285.676 79.1283 284.906 79.6022 283.992 79.9746C283.078 80.3301 281.969 80.5078 280.666 80.5078C278.973 80.5078 277.416 80.1608 275.994 79.4668C274.589 78.7728 273.464 77.8079 272.617 76.5723C271.771 75.3197 271.348 73.8809 271.348 72.2559C271.348 70.834 271.602 69.5645 272.109 68.4473C272.634 67.3301 273.421 66.3822 274.471 65.6035C275.52 64.8249 276.857 64.2324 278.482 63.8262C280.107 63.4199 282.02 63.2168 284.221 63.2168H287.902ZM314.613 72.2812C314.613 71.8073 314.452 71.401 314.131 71.0625C313.826 70.707 313.285 70.3854 312.506 70.0977C311.727 69.793 310.635 69.4883 309.23 69.1836C307.893 68.8958 306.632 68.515 305.447 68.041C304.279 67.5671 303.255 66.9915 302.375 66.3145C301.495 65.6374 300.801 64.8333 300.293 63.9023C299.802 62.9714 299.557 61.9049 299.557 60.7031C299.557 59.5352 299.802 58.4349 300.293 57.4023C300.801 56.3529 301.537 55.4303 302.502 54.6348C303.484 53.8223 304.677 53.1875 306.082 52.7305C307.487 52.2565 309.087 52.0195 310.881 52.0195C313.352 52.0195 315.485 52.4004 317.279 53.1621C319.074 53.9069 320.453 54.9564 321.418 56.3105C322.4 57.6478 322.891 59.1966 322.891 60.957H314.334C314.334 60.263 314.215 59.6706 313.979 59.1797C313.758 58.6888 313.395 58.3164 312.887 58.0625C312.379 57.7917 311.702 57.6562 310.855 57.6562C310.263 57.6562 309.721 57.7663 309.23 57.9863C308.757 58.2064 308.376 58.5111 308.088 58.9004C307.8 59.2897 307.656 59.7467 307.656 60.2715C307.656 60.6439 307.741 60.9824 307.91 61.2871C308.096 61.5749 308.376 61.8457 308.748 62.0996C309.12 62.3366 309.594 62.5566 310.17 62.7598C310.745 62.946 311.439 63.1152 312.252 63.2676C314.097 63.6061 315.824 64.0885 317.432 64.7148C319.04 65.3411 320.343 66.2298 321.342 67.3809C322.357 68.5319 322.865 70.0807 322.865 72.0273C322.865 73.2461 322.586 74.3717 322.027 75.4043C321.469 76.4199 320.665 77.3171 319.615 78.0957C318.566 78.8574 317.305 79.4499 315.832 79.873C314.359 80.2962 312.701 80.5078 310.855 80.5078C308.232 80.5078 306.014 80.0423 304.203 79.1113C302.392 78.1634 301.021 76.9785 300.09 75.5566C299.176 74.1178 298.719 72.6621 298.719 71.1895H306.691C306.725 72.0358 306.928 72.7298 307.301 73.2715C307.69 73.8132 308.206 74.2109 308.85 74.4648C309.493 74.7188 310.238 74.8457 311.084 74.8457C311.863 74.8457 312.506 74.7357 313.014 74.5156C313.538 74.2956 313.936 73.9993 314.207 73.627C314.478 73.2376 314.613 72.7891 314.613 72.2812ZM335.256 41V80H326.699V41H335.256ZM334.24 65.3242L332.234 65.375C332.234 63.4453 332.471 61.668 332.945 60.043C333.419 58.418 334.096 57.0046 334.977 55.8027C335.857 54.6009 336.915 53.6699 338.15 53.0098C339.386 52.3496 340.757 52.0195 342.264 52.0195C343.618 52.0195 344.854 52.2142 345.971 52.6035C347.105 52.9928 348.078 53.6191 348.891 54.4824C349.72 55.3457 350.355 56.4714 350.795 57.8594C351.252 59.2474 351.48 60.9401 351.48 62.9375V80H342.873V62.8867C342.873 61.7695 342.712 60.9062 342.391 60.2969C342.086 59.6706 341.646 59.2389 341.07 59.002C340.495 58.748 339.792 58.6211 338.963 58.6211C337.964 58.6211 337.152 58.7904 336.525 59.1289C335.899 59.4674 335.417 59.9414 335.078 60.5508C334.757 61.1432 334.536 61.8457 334.418 62.6582C334.299 63.4707 334.24 64.3594 334.24 65.3242Z" fill="white"/>
<circle cx="74" cy="74" r="50" fill="#DB6B5C"/>
<circle cx="73.75" cy="73.75" r="43.75" fill="#8C4646"/>
<path d="M43.1875 76.1299L60.4629 81.9639V90.6582L35.3994 80.4629V74.0059L43.1875 76.1299ZM60.4629 71.4004L43.1592 77.3477L35.3994 79.3867V72.9297L60.4629 62.7344V71.4004ZM83.7988 52.7656L69.6953 97.54H62.8984L77.002 52.7656H83.7988ZM104.473 77.2627L87.2539 71.4287V62.7627L112.176 72.958V79.4434L104.473 77.2627ZM87.2539 82.0205L104.473 76.0449L112.176 74.0342V80.4912L87.2539 90.6865V82.0205Z" fill="#F0D794"/>
<path d="M158.711 98.6055C158.711 98.2539 158.656 97.9414 158.547 97.668C158.445 97.3945 158.262 97.1445 157.996 96.918C157.73 96.6914 157.355 96.4727 156.871 96.2617C156.395 96.043 155.785 95.8203 155.043 95.5938C154.23 95.3438 153.48 95.0664 152.793 94.7617C152.113 94.4492 151.52 94.0898 151.012 93.6836C150.504 93.2695 150.109 92.7969 149.828 92.2656C149.547 91.7266 149.406 91.1055 149.406 90.4023C149.406 89.707 149.551 89.0742 149.84 88.5039C150.137 87.9336 150.555 87.4414 151.094 87.0273C151.641 86.6055 152.285 86.2812 153.027 86.0547C153.77 85.8203 154.59 85.7031 155.488 85.7031C156.754 85.7031 157.844 85.9375 158.758 86.4062C159.68 86.875 160.387 87.5039 160.879 88.293C161.379 89.082 161.629 89.9531 161.629 90.9062H158.711C158.711 90.3438 158.59 89.8477 158.348 89.418C158.113 88.9805 157.754 88.6367 157.27 88.3867C156.793 88.1367 156.188 88.0117 155.453 88.0117C154.758 88.0117 154.18 88.1172 153.719 88.3281C153.258 88.5391 152.914 88.8242 152.688 89.1836C152.461 89.543 152.348 89.9492 152.348 90.4023C152.348 90.7227 152.422 91.0156 152.57 91.2812C152.719 91.5391 152.945 91.7812 153.25 92.0078C153.555 92.2266 153.938 92.4336 154.398 92.6289C154.859 92.8242 155.402 93.0117 156.027 93.1914C156.973 93.4727 157.797 93.7852 158.5 94.1289C159.203 94.4648 159.789 94.8477 160.258 95.2773C160.727 95.707 161.078 96.1953 161.312 96.7422C161.547 97.2812 161.664 97.8945 161.664 98.582C161.664 99.3008 161.52 99.9492 161.23 100.527C160.941 101.098 160.527 101.586 159.988 101.992C159.457 102.391 158.816 102.699 158.066 102.918C157.324 103.129 156.496 103.234 155.582 103.234C154.762 103.234 153.953 103.125 153.156 102.906C152.367 102.688 151.648 102.355 151 101.91C150.352 101.457 149.836 100.895 149.453 100.223C149.07 99.543 148.879 98.75 148.879 97.8438H151.82C151.82 98.3984 151.914 98.8711 152.102 99.2617C152.297 99.6523 152.566 99.9727 152.91 100.223C153.254 100.465 153.652 100.645 154.105 100.762C154.566 100.879 155.059 100.938 155.582 100.938C156.27 100.938 156.844 100.84 157.305 100.645C157.773 100.449 158.125 100.176 158.359 99.8242C158.594 99.4727 158.711 99.0664 158.711 98.6055ZM166.773 85V103H163.961V85H166.773ZM166.281 96.1914L165.367 96.1797C165.375 95.3047 165.496 94.4961 165.73 93.7539C165.973 93.0117 166.309 92.3672 166.738 91.8203C167.176 91.2656 167.699 90.8398 168.309 90.543C168.918 90.2383 169.594 90.0859 170.336 90.0859C170.961 90.0859 171.523 90.1719 172.023 90.3438C172.531 90.5156 172.969 90.793 173.336 91.1758C173.703 91.5508 173.98 92.043 174.168 92.6523C174.363 93.2539 174.461 93.9883 174.461 94.8555V103H171.625V94.832C171.625 94.2227 171.535 93.7383 171.355 93.3789C171.184 93.0195 170.93 92.7617 170.594 92.6055C170.258 92.4414 169.848 92.3594 169.363 92.3594C168.855 92.3594 168.406 92.4609 168.016 92.6641C167.633 92.8672 167.312 93.1445 167.055 93.4961C166.797 93.8477 166.602 94.2539 166.469 94.7148C166.344 95.1758 166.281 95.668 166.281 96.1914ZM182.91 103.234C181.973 103.234 181.125 103.082 180.367 102.777C179.617 102.465 178.977 102.031 178.445 101.477C177.922 100.922 177.52 100.27 177.238 99.5195C176.957 98.7695 176.816 97.9609 176.816 97.0938V96.625C176.816 95.6328 176.961 94.7344 177.25 93.9297C177.539 93.125 177.941 92.4375 178.457 91.8672C178.973 91.2891 179.582 90.8477 180.285 90.543C180.988 90.2383 181.75 90.0859 182.57 90.0859C183.477 90.0859 184.27 90.2383 184.949 90.543C185.629 90.8477 186.191 91.2773 186.637 91.832C187.09 92.3789 187.426 93.0312 187.645 93.7891C187.871 94.5469 187.984 95.3828 187.984 96.2969V97.5039H178.188V95.4766H185.195V95.2539C185.18 94.7461 185.078 94.2695 184.891 93.8242C184.711 93.3789 184.434 93.0195 184.059 92.7461C183.684 92.4727 183.184 92.3359 182.559 92.3359C182.09 92.3359 181.672 92.4375 181.305 92.6406C180.945 92.8359 180.645 93.1211 180.402 93.4961C180.16 93.8711 179.973 94.3242 179.84 94.8555C179.715 95.3789 179.652 95.9688 179.652 96.625V97.0938C179.652 97.6484 179.727 98.1641 179.875 98.6406C180.031 99.1094 180.258 99.5195 180.555 99.8711C180.852 100.223 181.211 100.5 181.633 100.703C182.055 100.898 182.535 100.996 183.074 100.996C183.754 100.996 184.359 100.859 184.891 100.586C185.422 100.312 185.883 99.9258 186.273 99.4258L187.762 100.867C187.488 101.266 187.133 101.648 186.695 102.016C186.258 102.375 185.723 102.668 185.09 102.895C184.465 103.121 183.738 103.234 182.91 103.234ZM193.211 85V103H190.375V85H193.211ZM199.328 85V103H196.492V85H199.328ZM212.277 85.9375H215.207V97.3398C215.207 98.6367 214.926 99.7227 214.363 100.598C213.801 101.473 213.035 102.133 212.066 102.578C211.105 103.016 210.031 103.234 208.844 103.234C207.617 103.234 206.523 103.016 205.562 102.578C204.602 102.133 203.844 101.473 203.289 100.598C202.742 99.7227 202.469 98.6367 202.469 97.3398V85.9375H205.398V97.3398C205.398 98.1602 205.539 98.8359 205.82 99.3672C206.102 99.8906 206.5 100.277 207.016 100.527C207.531 100.777 208.141 100.902 208.844 100.902C209.547 100.902 210.152 100.777 210.66 100.527C211.176 100.277 211.574 99.8906 211.855 99.3672C212.137 98.8359 212.277 98.1602 212.277 97.3398V85.9375ZM223.938 90.3203V92.3828H216.789V90.3203H223.938ZM218.852 87.2148H221.676V99.4961C221.676 99.8867 221.73 100.188 221.84 100.398C221.957 100.602 222.117 100.738 222.32 100.809C222.523 100.879 222.762 100.914 223.035 100.914C223.23 100.914 223.418 100.902 223.598 100.879C223.777 100.855 223.922 100.832 224.031 100.809L224.043 102.965C223.809 103.035 223.535 103.098 223.223 103.152C222.918 103.207 222.566 103.234 222.168 103.234C221.52 103.234 220.945 103.121 220.445 102.895C219.945 102.66 219.555 102.281 219.273 101.758C218.992 101.234 218.852 100.539 218.852 99.6719V87.2148ZM229.141 90.3203V103H226.305V90.3203H229.141ZM226.117 86.9922C226.117 86.5625 226.258 86.207 226.539 85.9258C226.828 85.6367 227.227 85.4922 227.734 85.4922C228.234 85.4922 228.629 85.6367 228.918 85.9258C229.207 86.207 229.352 86.5625 229.352 86.9922C229.352 87.4141 229.207 87.7656 228.918 88.0469C228.629 88.3281 228.234 88.4688 227.734 88.4688C227.227 88.4688 226.828 88.3281 226.539 88.0469C226.258 87.7656 226.117 87.4141 226.117 86.9922ZM235.258 85V103H232.422V85H235.258ZM245.465 99.5664C245.465 99.2852 245.395 99.0312 245.254 98.8047C245.113 98.5703 244.844 98.3594 244.445 98.1719C244.055 97.9844 243.477 97.8125 242.711 97.6562C242.039 97.5078 241.422 97.332 240.859 97.1289C240.305 96.918 239.828 96.6641 239.43 96.3672C239.031 96.0703 238.723 95.7188 238.504 95.3125C238.285 94.9062 238.176 94.4375 238.176 93.9062C238.176 93.3906 238.289 92.9023 238.516 92.4414C238.742 91.9805 239.066 91.5742 239.488 91.2227C239.91 90.8711 240.422 90.5938 241.023 90.3906C241.633 90.1875 242.312 90.0859 243.062 90.0859C244.125 90.0859 245.035 90.2656 245.793 90.625C246.559 90.9766 247.145 91.457 247.551 92.0664C247.957 92.668 248.16 93.3477 248.16 94.1055H245.336C245.336 93.7695 245.25 93.457 245.078 93.168C244.914 92.8711 244.664 92.6328 244.328 92.4531C243.992 92.2656 243.57 92.1719 243.062 92.1719C242.578 92.1719 242.176 92.25 241.855 92.4062C241.543 92.5547 241.309 92.75 241.152 92.9922C241.004 93.2344 240.93 93.5 240.93 93.7891C240.93 94 240.969 94.1914 241.047 94.3633C241.133 94.5273 241.273 94.6797 241.469 94.8203C241.664 94.9531 241.93 95.0781 242.266 95.1953C242.609 95.3125 243.039 95.4258 243.555 95.5352C244.523 95.7383 245.355 96 246.051 96.3203C246.754 96.6328 247.293 97.0391 247.668 97.5391C248.043 98.0312 248.23 98.6562 248.23 99.4141C248.23 99.9766 248.109 100.492 247.867 100.961C247.633 101.422 247.289 101.824 246.836 102.168C246.383 102.504 245.84 102.766 245.207 102.953C244.582 103.141 243.879 103.234 243.098 103.234C241.949 103.234 240.977 103.031 240.18 102.625C239.383 102.211 238.777 101.684 238.363 101.043C237.957 100.395 237.754 99.7227 237.754 99.0273H240.484C240.516 99.5508 240.66 99.9688 240.918 100.281C241.184 100.586 241.512 100.809 241.902 100.949C242.301 101.082 242.711 101.148 243.133 101.148C243.641 101.148 244.066 101.082 244.41 100.949C244.754 100.809 245.016 100.621 245.195 100.387C245.375 100.145 245.465 99.8711 245.465 99.5664Z" fill="white"/>
</svg>
